<svg xmlns="http://www.w3.org/2000/svg" xmlns:xlink="http://www.w3.org/1999/xlink" width="375" viewBox="0 0 375 375" height="375" version="1.0"><defs><g id="b"><path d="M 10.945312 -20.550781 C 10.542969 -20.777344 6.109375 -22.992188 -2.335938 -27.320312 L -2.09375 -29.574219 C -2.0625 -29.90625 -2.144531 -30.183594 -2.464844 -30.421875 C -2.742188 -30.628906 -3.078125 -30.660156 -3.386719 -30.53125 L -6.238281 -29.285156 C -6.640625 -29.515625 -11.214844 -31.832031 -19.828125 -36.21875 C -20.671875 -36.625 -21.636719 -37.058594 -22.199219 -36.972656 C -22.476562 -36.890625 -22.839844 -36.589844 -23.230469 -36.164062 L -26.339844 -31.964844 C -27.433594 -30.488281 -27.433594 -29.914062 -26.113281 -28.511719 C -23.886719 -26.214844 -20.246094 -22.445312 -15.277344 -17.1875 L -15.628906 -14.015625 C -15.695312 -13.636719 -15.566406 -13.328125 -15.289062 -13.121094 C -14.96875 -12.882812 -14.679688 -12.886719 -14.335938 -13.058594 L -12.171875 -13.957031 C -12.125 -13.921875 -12.019531 -13.773438 -11.882812 -13.671875 C -10.472656 -12.195312 -7.03125 -8.644531 -1.578125 -2.886719 C -0.378906 -1.710938 0.351562 -0.667969 1.355469 -1.925781 C 2.121094 -2.859375 3.007812 -4.058594 4.023438 -5.523438 C 4.503906 -6.167969 4.453125 -6.777344 3.863281 -7.429688 C 2.015625 -9.371094 0.941406 -10.527344 0.605469 -10.84375 C -1.542969 -12.867188 -1.359375 -13.304688 0.417969 -15.703125 C 0.417969 -15.703125 0.519531 -15.839844 0.738281 -16.039062 C 1.980469 -17.617188 4.261719 -16.070312 4.757812 -15.773438 C 5.195312 -15.589844 5.785156 -15.226562 6.542969 -14.804688 C 8.15625 -13.898438 8.882812 -13.429688 9.5625 -13.570312 C 9.882812 -13.617188 10.179688 -13.828125 10.566406 -14.253906 C 10.839844 -14.625 13.40625 -17.796875 13.300781 -18.519531 C 13.25 -19.128906 12.453125 -19.789062 10.945312 -20.550781 Z M -4.570312 -20.832031 C -4.039062 -20.292969 -5.910156 -17.675781 -6.601562 -18.191406 C -6.738281 -18.292969 -6.972656 -18.464844 -7.167969 -18.679688 C -9.003906 -20.253906 -10.226562 -21.59375 -10.863281 -22.566406 C -11.050781 -22.988281 -10.859375 -23.632812 -10.144531 -23.535156 C -9.765625 -23.46875 -9.46875 -23.386719 -9.25 -23.296875 C -9.109375 -23.195312 -6.289062 -21.890625 -5.390625 -21.367188 C -4.941406 -21.105469 -4.664062 -20.898438 -4.570312 -20.832031 Z M -4.570312 -20.832031"/></g><g id="c"><path d="M 8.015625 -25.488281 C 6.050781 -27.582031 3.75 -28.789062 1.152344 -28.980469 C -0.265625 -29.121094 -0.585938 -29.449219 -0.773438 -30.789062 C -1.519531 -36.566406 -7.800781 -41.269531 -12.714844 -40.960938 C -15.113281 -40.785156 -17.195312 -39.796875 -19.085938 -37.867188 C -19.703125 -37.183594 -20.566406 -36.34375 -21.636719 -35.300781 C -24.796875 -32.289062 -25.78125 -31.492188 -25.792969 -30.679688 C -25.796875 -30.351562 -25.273438 -29.65625 -24.3125 -28.671875 L -0.679688 -4.476562 C 0.644531 -3.121094 1.246094 -2.503906 1.855469 -2.457031 C 2.261719 -2.449219 2.710938 -2.648438 3.164062 -3.089844 C 11.046875 -10.632812 13.257812 -12.066406 12.871094 -17.230469 C 12.699219 -19.628906 11.828125 -21.585938 10.179688 -23.191406 C 9.257812 -24.132812 8.496094 -24.914062 8.015625 -25.488281 Z M -15.042969 -29.699219 C -15.878906 -30.886719 -15.707031 -31.695312 -14.558594 -32.65625 C -13.371094 -33.660156 -12.070312 -33.726562 -10.738281 -33.019531 L -9.289062 -32.027344 C -8.40625 -31.125 -7.769531 -30.058594 -7.457031 -28.917969 C -7.300781 -28.269531 -7.390625 -27.621094 -7.765625 -26.933594 C -9.71875 -23.179688 -13.363281 -27.40625 -15.042969 -29.699219 Z M 4.910156 -16.917969 C 5.300781 -15.53125 4.835938 -14.277344 3.523438 -13.074219 C 2.007812 -11.753906 1.609375 -12.570312 -1.359375 -15.609375 C -4.089844 -18.402344 -4.773438 -18.777344 -4.226562 -20.433594 C -3.597656 -22.09375 -1.074219 -22.710938 0.621094 -21.878906 C 2.84375 -20.839844 4.246094 -19.15625 4.910156 -16.917969 Z M 4.910156 -16.917969"/></g><g id="d"><path d="M 11.910156 -21.675781 L 0.914062 -37.175781 C -0.839844 -39.664062 -3.335938 -41.910156 -6.597656 -42.351562 C -9.894531 -42.839844 -12.601562 -41.703125 -15.914062 -38.523438 C -16.457031 -38 -16.808594 -37.402344 -17.074219 -36.582031 C -18.40625 -32.691406 -18.066406 -29.417969 -16.023438 -26.714844 L -3.613281 -9.113281 C -2.554688 -7.613281 -1.460938 -6.558594 -0.171875 -5.921875 C 6.804688 -2.40625 14.859375 -7.523438 14.367188 -16.097656 C 14.304688 -16.6875 14.226562 -17.195312 13.976562 -17.648438 C 12.996094 -19.839844 12.273438 -21.160156 11.910156 -21.675781 Z M 7.070312 -15.382812 C 7.550781 -12.910156 4.796875 -11.039062 2.6875 -12.433594 C 2.234375 -12.675781 1.691406 -13.347656 1.03125 -14.285156 L -9.753906 -29.585938 C -10.285156 -30.339844 -10.617188 -30.808594 -10.765625 -31.121094 C -12.125 -33.746094 -8.851562 -36.476562 -6.480469 -34.707031 C -6.007812 -34.335938 -5.550781 -33.886719 -5.085938 -33.230469 L 6.097656 -17.367188 C 6.625 -16.613281 6.960938 -15.9375 7.070312 -15.382812 Z M 7.070312 -15.382812"/></g><g id="e"><path d="M 9.78125 -4.703125 L 15.679688 -7.539062 C 17.054688 -8.265625 16.210938 -10.28125 15.894531 -11.46875 C 8.398438 -38.449219 7.40625 -42.367188 7.285156 -42.882812 C 6.921875 -44.171875 6.527344 -45.257812 6.257812 -46.082031 C 5.9375 -46.886719 5.425781 -47.148438 4.574219 -46.804688 C 3.410156 -46.308594 2.0625 -45.660156 0.535156 -44.863281 C -0.835938 -44.136719 0.226562 -41.527344 0.546875 -40.46875 C 1.472656 -37.21875 4.332031 -27.699219 5.550781 -23.570312 C 5.75 -23.027344 5.890625 -22.203125 6.128906 -21.171875 C 6.273438 -20.347656 5.578125 -20.203125 5.222656 -20.542969 C 4.589844 -21.195312 4.160156 -21.691406 3.859375 -22.054688 C 2.753906 -23.691406 1.246094 -25.894531 -0.613281 -28.570312 C -5.132812 -35.1875 -6.292969 -36.800781 -8 -39.164062 C -8.628906 -40.070312 -9.117188 -40.15625 -10.125 -39.734375 C -11.183594 -39.289062 -12.269531 -38.765625 -13.410156 -38.21875 C -14.808594 -37.417969 -14.945312 -36.90625 -14.066406 -35.480469 C -13.992188 -35.324219 -13.84375 -35.144531 -13.691406 -34.960938 C -12.433594 -33.144531 -8.207031 -27.402344 -6.246094 -24.648438 L 6.957031 -6.339844 C 7.484375 -5.636719 8.332031 -4.007812 9.78125 -4.703125 Z M 9.78125 -4.703125"/></g><g id="f"><path d="M 17.757812 -11.046875 C 17.21875 -12.265625 16.164062 -11.773438 14.496094 -11.34375 L 9.097656 -9.75 C 7.265625 -9.269531 6.605469 -9.671875 5.976562 -11.402344 C 5.417969 -13.09375 4.976562 -14.582031 4.699219 -15.933594 C 4.109375 -18.335938 4.578125 -18.773438 6.671875 -19.390625 C 8.269531 -19.863281 9.535156 -20.238281 10.347656 -20.535156 C 11.101562 -20.816406 11.429688 -21.332031 11.199219 -22.105469 C 10.96875 -23.292969 10.628906 -24.449219 10.230469 -25.589844 C 9.785156 -26.894531 9.34375 -27.183594 8.019531 -26.792969 C 7.617188 -26.734375 6.957031 -26.539062 6.078125 -26.28125 C 4.367188 -25.777344 3.171875 -25.363281 2.332031 -25.773438 C 1.960938 -26.023438 1.578125 -26.511719 1.367188 -27.226562 C 0.738281 -28.957031 0.199219 -30.773438 -0.296875 -32.664062 C -0.691406 -34.402344 -0.355469 -35.097656 1.445312 -35.691406 L 6.898438 -37.300781 C 8.492188 -37.769531 9.683594 -38.003906 9.402344 -39.355469 C 9.140625 -40.65625 8.382812 -43.425781 7.738281 -43.773438 C 7.398438 -43.914062 6.636719 -43.867188 5.367188 -43.496094 L -6.527344 -39.984375 C -9.226562 -39.1875 -9.25 -39.0625 -8.4375 -36.308594 L 1.019531 -4.253906 C 1.621094 -2.214844 1.777344 -1.484375 2.402344 -1.1875 C 3.027344 -0.894531 3.964844 -1.171875 4.738281 -1.398438 L 16.6875 -4.925781 C 17.84375 -5.265625 19.199219 -5.546875 18.917969 -6.898438 C 18.695312 -8.269531 18.289062 -9.648438 17.757812 -11.046875 Z M 17.757812 -11.046875"/></g><g id="g"><path d="M 17.234375 -40.828125 L 3.460938 -40.34375 C 2.140625 -40.296875 1.449219 -40.386719 1.003906 -39.96875 C 0.839844 -39.792969 0.679688 -39.441406 0.695312 -38.984375 C 0.683594 -37.660156 0.730469 -36.339844 0.832031 -35.136719 C 0.929688 -33.992188 1.339844 -33.71875 2.488281 -33.703125 C 2.722656 -33.652344 3.179688 -33.667969 3.8125 -33.691406 C 4.960938 -33.730469 6.105469 -33.773438 6.703125 -33.160156 C 7.238281 -32.605469 7.265625 -31.859375 7.335938 -29.90625 L 7.59375 -22.621094 L 5.003906 -21.035156 C 4.726562 -20.792969 4.621094 -20.5625 4.632812 -20.21875 C 4.644531 -19.816406 4.769531 -19.53125 5.0625 -19.371094 L 7.757812 -17.972656 L 8.269531 -3.453125 C 8.328125 -1.730469 8.148438 -0.34375 9.640625 -0.339844 C 11.019531 -0.332031 12.457031 -0.382812 13.945312 -0.492188 C 15.320312 -0.65625 15.101562 -1.96875 15.027344 -4.035156 L 14.527344 -18.265625 L 17 -19.789062 C 17.28125 -19.972656 17.445312 -20.265625 17.429688 -20.667969 C 17.417969 -21.011719 17.238281 -21.234375 16.941406 -21.457031 L 14.367188 -22.800781 L 14.128906 -29.574219 C 14.046875 -31.8125 13.957031 -32.785156 14.625 -33.441406 C 15.289062 -34.152344 16.496094 -34.136719 17.644531 -34.179688 C 18.675781 -34.214844 19.480469 -34.242188 19.925781 -34.660156 C 20.089844 -34.898438 20.191406 -35.246094 20.171875 -35.761719 C 20.214844 -36.222656 20.183594 -37.082031 20.144531 -38.230469 C 20.046875 -40.929688 19.933594 -40.925781 17.234375 -40.828125 Z M 17.234375 -40.828125"/></g><g id="h"><path d="M 22.5 -0.484375 L 26.578125 -34.523438 C 26.757812 -36.003906 27.140625 -37.289062 25.617188 -37.589844 C 24.546875 -37.832031 21.132812 -38.300781 20.558594 -37.847656 C 20.238281 -37.597656 20.027344 -36.8125 19.859375 -35.386719 C 19.664062 -34.253906 19.457031 -32.542969 19.191406 -30.320312 L 18.585938 -25.246094 C 18.386719 -23.589844 18.289062 -21.808594 16.558594 -21.84375 C 15.046875 -21.792969 13.050781 -22.03125 12.441406 -22.742188 C 11.890625 -23.445312 12.140625 -24.570312 12.359375 -26.394531 L 13.496094 -35.859375 C 13.699219 -37.570312 14.085938 -38.855469 12.558594 -39.152344 C 11.488281 -39.398438 8.074219 -39.863281 7.445312 -39.417969 C 7.125 -39.167969 6.914062 -38.382812 6.742188 -36.957031 L 2.71875 -3.375 C 2.472656 -1.324219 2.382812 -0.582031 2.726562 -0.078125 C 3.128906 0.433594 4.105469 0.492188 6.042969 0.722656 C 8.835938 1.058594 9.09375 0.859375 9.414062 -1.820312 L 10.65625 -12.199219 C 10.847656 -13.792969 10.855469 -15.296875 12.523438 -15.214844 C 14.191406 -15.128906 16.667969 -15.0625 16.933594 -13.414062 C 17.035156 -12.820312 17 -12.015625 16.882812 -11.046875 L 15.75 -1.121094 C 15.566406 0.421875 15.242188 1.652344 16.65625 1.9375 C 17.160156 2.058594 17.902344 2.144531 18.871094 2.261719 C 21.953125 2.632812 22.136719 2.539062 22.5 -0.484375 Z M 22.5 -0.484375"/></g><g id="i"><path d="M 20.910156 0.046875 C 21.101562 -1.273438 19.949219 -1.414062 18.304688 -1.933594 L 12.882812 -3.445312 C 11.074219 -4.007812 10.730469 -4.699219 11.113281 -6.5 C 11.535156 -8.230469 11.949219 -9.722656 12.429688 -11.019531 C 13.207031 -13.367188 13.835938 -13.492188 15.9375 -12.90625 C 17.542969 -12.457031 18.8125 -12.101562 19.660156 -11.925781 C 20.449219 -11.765625 21 -12.03125 21.214844 -12.804688 C 21.648438 -13.9375 21.972656 -15.097656 22.242188 -16.273438 C 22.554688 -17.617188 22.332031 -18.097656 21.003906 -18.46875 C 20.632812 -18.628906 19.96875 -18.816406 19.085938 -19.0625 C 17.371094 -19.539062 16.136719 -19.824219 15.644531 -20.617188 C 15.460938 -21.027344 15.390625 -21.640625 15.59375 -22.359375 C 15.976562 -24.160156 16.484375 -25.988281 17.0625 -27.851562 C 17.652344 -29.535156 18.304688 -29.949219 20.144531 -29.496094 L 25.621094 -27.972656 C 27.226562 -27.523438 28.355469 -27.089844 28.835938 -28.386719 C 29.300781 -29.628906 30.128906 -32.378906 29.769531 -33.015625 C 29.554688 -33.3125 28.882812 -33.679688 27.609375 -34.035156 L 15.660156 -37.363281 C 12.949219 -38.121094 12.863281 -38.023438 12.09375 -35.257812 L 3.121094 -3.066406 C 2.550781 -1.019531 2.292969 -0.316406 2.667969 0.265625 C 3.042969 0.847656 3.984375 1.109375 4.757812 1.324219 L 16.761719 4.671875 C 17.921875 4.996094 19.21875 5.476562 19.699219 4.179688 C 20.234375 2.898438 20.621094 1.515625 20.910156 0.046875 Z M 20.910156 0.046875"/></g><g id="j"><path d="M 21.527344 8.914062 C 23.257812 2.878906 24.335938 -1.015625 24.816406 -2.863281 C 25.242188 -4.277344 26 -5.230469 27.183594 -5.667969 C 28.824219 -6.308594 30.011719 -7.207031 30.679688 -8.347656 C 33.394531 -12.882812 35.101562 -15.808594 35.835938 -17.175781 C 37.359375 -20.011719 36.734375 -23.5 34.433594 -25.707031 C 33.109375 -27.082031 31.785156 -28.117188 30.519531 -28.792969 L 27.890625 -30.328125 C 25.011719 -32.007812 23.632812 -32.949219 22.925781 -32.761719 C 22.535156 -32.660156 22 -31.972656 21.277344 -30.734375 L 13.660156 -17.691406 L 11.007812 -17.710938 C 10.675781 -17.707031 10.382812 -17.546875 10.207031 -17.246094 C 10.003906 -16.902344 10.039062 -16.617188 10.167969 -16.273438 L 11.515625 -14.023438 L 4.160156 -1.429688 C 3.203125 0.207031 2.308594 1.28125 3.621094 2.113281 C 4.78125 2.859375 5.972656 3.554688 7.140625 4.171875 C 8.558594 4.933594 9.027344 3.675781 9.894531 2.1875 L 13.976562 -4.804688 C 14.925781 -6.3125 15.609375 -7.707031 17.164062 -7.066406 C 18.714844 -6.425781 18.210938 -4.992188 17.859375 -3.933594 L 16.457031 0.632812 C 15.820312 2.855469 15.386719 4.398438 15.101562 5.230469 C 14.585938 6.792969 14.070312 8.019531 15.074219 8.804688 C 16.652344 9.859375 18.140625 10.726562 19.566406 11.363281 C 20.140625 11.628906 20.699219 11.359375 20.890625 10.804688 C 21.101562 10.328125 21.347656 9.675781 21.527344 8.914062 Z M 28.910156 -17.960938 L 26.304688 -13.496094 C 26.246094 -13.398438 26.082031 -13.230469 25.859375 -12.960938 C 24.390625 -11.359375 22.015625 -11.28125 20.445312 -12.796875 C 19.746094 -13.539062 19.636719 -14.265625 20.128906 -15.109375 C 20.1875 -15.207031 20.949219 -16.625 22.222656 -18.808594 C 24.628906 -22.921875 24.863281 -24.582031 27.4375 -22.613281 C 27.609375 -22.445312 27.777344 -22.28125 28.09375 -22.027344 C 29.5 -20.675781 29.738281 -19.605469 28.910156 -17.960938 Z M 28.910156 -17.960938"/></g><g id="k"><path d="M 9.382812 3.535156 L 30.140625 -23.382812 C 31.335938 -24.929688 32.289062 -25.789062 31.164062 -26.875 C 30.335938 -27.585938 27.679688 -29.78125 26.871094 -29.675781 C 26.550781 -29.632812 25.933594 -29.023438 25.09375 -27.929688 L 4.191406 -0.828125 C 3.210938 0.445312 2.195312 1.476562 3.355469 2.515625 C 3.773438 2.910156 4.410156 3.402344 5.273438 4.066406 C 7.503906 5.785156 7.628906 5.8125 9.382812 3.535156 Z M 9.382812 3.535156"/></g><g id="l"><path d="M 40.292969 -13.84375 C 40.332031 -15.914062 39.554688 -17.660156 38.089844 -19.117188 C 38.011719 -19.199219 36.097656 -21.105469 32.273438 -24.832031 C 31.5 -25.601562 30.6875 -26.574219 29.59375 -25.71875 C 29.269531 -25.394531 28.742188 -24.949219 28.132812 -24.335938 L 4.464844 -0.578125 C 3.007812 0.886719 2.519531 1.375 2.523438 2.023438 C 2.523438 2.269531 2.683594 2.675781 3.09375 3.078125 L 3.253906 3.242188 C 10.617188 10.578125 11.476562 12.808594 17.847656 11.539062 C 19.632812 11.128906 21.257812 10.230469 22.714844 8.765625 L 37.589844 -6.164062 C 39.414062 -7.996094 40.261719 -9.824219 40.292969 -13.84375 Z M 31.449219 -9.605469 L 17.996094 3.902344 C 16.414062 5.492188 13.449219 4.644531 12.472656 2.535156 C 12.023438 1.4375 12.875 0.664062 13.847656 -0.3125 L 28.71875 -15.242188 C 30.179688 -16.789062 31.03125 -16.667969 32.457031 -15.007812 C 33.675781 -13.628906 33.71875 -12.207031 32.503906 -10.742188 C 32.34375 -10.5 31.976562 -10.132812 31.449219 -9.605469 Z M 31.449219 -9.605469"/></g><g id="m"><path d="M 16.425781 12.941406 C 17.390625 12.019531 16.570312 11.195312 15.597656 9.773438 L 12.261719 5.238281 C 11.1875 3.679688 11.34375 2.921875 12.753906 1.742188 C 14.15625 0.640625 15.40625 -0.277344 16.582031 -1 C 18.640625 -2.371094 19.210938 -2.078125 20.503906 -0.320312 C 21.492188 1.019531 22.273438 2.085938 22.828125 2.746094 C 23.351562 3.359375 23.949219 3.492188 24.597656 3.015625 C 25.636719 2.390625 26.605469 1.679688 27.546875 0.917969 C 28.621094 0.0546875 28.742188 -0.460938 27.925781 -1.570312 C 27.734375 -1.929688 27.324219 -2.484375 26.78125 -3.226562 C 25.726562 -4.660156 24.929688 -5.644531 25.03125 -6.570312 C 25.140625 -7.007812 25.464844 -7.53125 26.066406 -7.976562 C 27.480469 -9.15625 29.007812 -10.277344 30.613281 -11.390625 C 32.117188 -12.351562 32.886719 -12.273438 34.054688 -10.78125 L 37.421875 -6.203125 C 38.40625 -4.859375 39.03125 -3.820312 40.207031 -4.542969 C 41.339844 -5.234375 43.6875 -6.886719 43.796875 -7.609375 C 43.8125 -7.976562 43.507812 -8.679688 42.726562 -9.746094 L 35.378906 -19.738281 C 33.714844 -22.007812 33.585938 -21.984375 31.273438 -20.285156 L 4.347656 -0.488281 C 2.632812 0.773438 2 1.167969 1.933594 1.855469 C 1.871094 2.542969 2.449219 3.332031 2.925781 3.980469 L 10.304688 14.019531 C 11.019531 14.992188 11.746094 16.167969 12.921875 15.445312 C 14.136719 14.765625 15.292969 13.917969 16.425781 12.941406 Z M 16.425781 12.941406"/></g><clipPath id="a"><path d="M 18.265625 159.804688 L 356.515625 159.804688 L 356.515625 337.554688 L 18.265625 337.554688 Z M 18.265625 159.804688"/></clipPath></defs><g clip-path="url(#a)"><path fill="#FFF" d="M 338.570312 285.3125 L 324.113281 284.449219 C 324.136719 284.027344 324.152344 283.597656 324.152344 283.167969 C 324.152344 281.601562 323.992188 280.074219 323.6875 278.601562 L 337.386719 273.617188 C 338.199219 276.660156 338.632812 279.859375 338.632812 283.167969 C 338.632812 283.886719 338.609375 284.601562 338.570312 285.3125 Z M 335.109375 298.921875 L 321.984375 292.789062 C 322.675781 291.339844 323.210938 289.800781 323.578125 288.199219 L 338.164062 289.070312 C 337.605469 292.542969 336.566406 295.847656 335.109375 298.921875 Z M 327.855469 309.21875 C 327.3125 309.761719 326.75 310.285156 326.175781 310.792969 L 316.5625 299.949219 C 316.921875 299.632812 317.273438 299.308594 317.613281 298.96875 C 318.507812 298.070312 319.324219 297.09375 320.058594 296.054688 L 333.320312 302.25 C 331.78125 304.785156 329.945312 307.121094 327.855469 309.21875 Z M 314.644531 317.71875 L 309.695312 304.085938 C 311.035156 303.578125 312.316406 302.949219 313.523438 302.203125 L 323.222656 313.144531 C 320.597656 315.03125 317.71875 316.574219 314.644531 317.71875 Z M 301.828125 320.007812 C 301.394531 320.007812 300.964844 320 300.539062 319.984375 L 301.402344 305.503906 C 301.542969 305.507812 301.683594 305.515625 301.828125 305.515625 C 303.277344 305.515625 304.6875 305.371094 306.054688 305.109375 L 311.042969 318.847656 C 308.101562 319.605469 305.015625 320.007812 301.828125 320.007812 Z M 298.214844 261.117188 L 292.730469 247.457031 C 295.425781 246.773438 298.242188 246.390625 301.152344 246.335938 L 300.285156 260.878906 C 299.585938 260.929688 298.894531 261.007812 298.214844 261.117188 Z M 296.78125 319.664062 C 293.625 319.234375 290.605469 318.40625 287.761719 317.226562 L 293.902344 304.0625 C 295.105469 304.519531 296.355469 304.875 297.648438 305.117188 Z M 276.015625 309.429688 L 286.886719 299.769531 C 288 300.773438 289.210938 301.664062 290.503906 302.425781 L 284.359375 315.605469 C 281.292969 313.949219 278.488281 311.863281 276.015625 309.429688 Z M 268.441406 298.703125 L 282.140625 293.714844 C 282.765625 294.882812 283.496094 295.984375 284.3125 297.011719 L 273.464844 306.648438 C 271.46875 304.234375 269.777344 301.566406 268.441406 298.703125 Z M 265.054688 284.703125 L 279.632812 285.574219 C 279.804688 287.191406 280.152344 288.753906 280.648438 290.246094 L 267.027344 295.203125 C 265.886719 291.894531 265.203125 288.371094 265.054688 284.703125 Z M 250.769531 264.527344 C 250.667969 263.847656 250.53125 263.234375 250.371094 262.699219 C 251.609375 256.691406 252.605469 250.234375 252.8125 244.363281 C 253.164062 234.40625 255.902344 226.207031 258.4375 220.445312 L 268.054688 219.179688 L 269.117188 223.136719 L 274.753906 236.003906 C 263.753906 242.34375 255.179688 252.429688 250.769531 264.527344 Z M 249.367188 260.460938 C 247.925781 258.257812 245.191406 254.53125 245.191406 254.53125 L 248.683594 237.730469 C 248.683594 237.730469 249.898438 237.65625 250.507812 236.742188 C 251.113281 235.828125 251.800781 233.398438 253.015625 230.203125 C 253.503906 228.917969 254.351562 227.097656 255.191406 225.382812 C 253.386719 230.589844 251.847656 236.996094 251.597656 244.324219 C 251.417969 249.539062 250.589844 255.265625 249.527344 260.726562 C 249.472656 260.636719 249.421875 260.542969 249.367188 260.460938 Z M 241.394531 280.226562 C 238.660156 289.125 234.328125 297.789062 234.328125 297.789062 L 233.722656 296.574219 C 233.722656 296.574219 237.066406 290.796875 238.582031 284.714844 C 240.101562 278.632812 243.292969 263.882812 243.292969 263.882812 C 244.585938 266.546875 244.128906 271.335938 241.394531 280.226562 Z M 229.46875 267.152344 C 228.480469 265.9375 225.898438 265.023438 225.898438 265.023438 L 226.964844 261.449219 C 226.964844 261.449219 232.28125 262.820312 233.039062 261.300781 C 233.796875 259.777344 233.191406 258.332031 233.191406 258.332031 L 228.175781 256.890625 L 228.40625 256.207031 L 234.710938 256.359375 L 236 254.304688 L 236.761719 254.914062 L 232.355469 270.195312 C 232.355469 270.195312 230.457031 268.367188 229.46875 267.152344 Z M 226.734375 228.226562 C 226.734375 228.226562 228.558594 230.886719 228.101562 232.179688 C 227.644531 233.472656 225.140625 233.625 225.140625 233.625 Z M 240.253906 234.003906 C 240.710938 230.585938 237.671875 227.773438 237.671875 227.773438 L 242.152344 224.65625 L 242.078125 233.929688 L 238.355469 246.015625 L 234.253906 243.660156 C 234.253906 243.660156 239.800781 237.425781 240.253906 234.003906 Z M 241.546875 221.765625 C 241.546875 221.765625 241.773438 222.070312 241.621094 222.753906 C 241.46875 223.4375 235.773438 226.25 235.773438 226.25 L 235.242188 223.515625 Z M 266.648438 174.042969 C 268.253906 174.828125 269.539062 176.09375 269.828125 178.523438 C 269.867188 178.851562 269.886719 179.222656 269.886719 179.632812 C 269.894531 182.226562 269.140625 186.253906 268.082031 190.585938 L 266.152344 185.425781 C 266.152344 185.425781 268.355469 184.96875 268.660156 183.222656 C 268.964844 181.472656 267.824219 180.179688 267.824219 180.179688 L 263.332031 173.183594 C 264.394531 173.292969 265.589844 173.539062 266.648438 174.042969 Z M 280.242188 277.449219 C 279.871094 278.84375 279.636719 280.296875 279.546875 281.789062 L 265.089844 280.925781 C 265.289062 277.554688 265.941406 274.3125 266.984375 271.253906 Z M 284.335938 269.289062 C 283.222656 270.691406 282.273438 272.234375 281.519531 273.878906 L 268.390625 267.746094 C 269.980469 264.292969 272.09375 261.128906 274.632812 258.339844 Z M 282.128906 252.050781 L 287.683594 265.878906 C 287.429688 266.089844 287.179688 266.304688 286.929688 266.527344 L 277.316406 255.683594 C 278.820312 254.347656 280.429688 253.128906 282.128906 252.050781 Z M 304.917969 246.457031 C 308.621094 246.761719 312.15625 247.613281 315.457031 248.929688 L 311.277344 257.890625 C 308.394531 257.351562 305.207031 257.132812 304.242188 257.816406 Z M 327.855469 257.113281 C 328.070312 257.332031 328.28125 257.550781 328.492188 257.769531 L 317.648438 267.402344 C 317.636719 267.390625 317.625 267.378906 317.613281 267.367188 C 317.578125 267.332031 317.539062 267.296875 317.507812 267.261719 C 317.671875 266.039062 317.816406 264.910156 317.878906 264.214844 C 318.078125 261.984375 318.03125 260.664062 316.207031 259.398438 C 315.945312 259.21875 315.523438 259.027344 314.996094 258.839844 L 318.878906 250.507812 C 322.195312 252.25 325.214844 254.480469 327.855469 257.113281 Z M 336.226562 270.027344 L 322.601562 274.980469 C 321.945312 273.3125 321.09375 271.742188 320.070312 270.292969 L 330.945312 260.632812 C 333.140625 263.46875 334.929688 266.625 336.226562 270.027344 Z M 211.394531 231.800781 L 201.367188 229.898438 L 203.039062 226.632812 L 211.46875 227.621094 Z M 200.152344 258.636719 L 192.859375 259.246094 C 192.859375 259.246094 194.074219 257.523438 194.277344 254.988281 C 194.480469 252.453125 192.65625 250.328125 192.65625 250.328125 L 194.378906 250.226562 L 194.582031 245.664062 L 196.503906 247.285156 L 196.503906 248.703125 C 196.503906 248.703125 199.542969 253.0625 200.757812 254.785156 C 201.972656 256.507812 200.152344 258.636719 200.152344 258.636719 Z M 191.1875 227.238281 C 190.507812 227.238281 190.808594 226.175781 190.808594 226.175781 L 192.859375 226.023438 C 192.859375 226.023438 191.871094 227.238281 191.1875 227.238281 Z M 189.722656 258.332031 C 188.101562 258.332031 185.769531 257.523438 184.152344 256.105469 C 182.53125 254.683594 181.214844 249.617188 181.214844 249.617188 L 182.53125 249.515625 C 182.53125 249.515625 185.367188 253.976562 187.085938 254.078125 C 188.808594 254.175781 190.226562 251.035156 190.226562 251.035156 C 190.226562 251.035156 192.152344 252.859375 192.253906 254.785156 C 192.351562 256.710938 191.339844 258.332031 189.722656 258.332031 Z M 179.339844 238.871094 C 179.339844 238.871094 179.644531 237.578125 180.480469 237.578125 C 181.316406 237.578125 181.542969 238.644531 181.542969 238.644531 L 181.390625 245.183594 L 179.339844 246.703125 Z M 177.59375 231.953125 L 173.71875 232.257812 L 173.71875 231.421875 L 178.125 228.910156 Z M 172.429688 255.976562 L 173.265625 247.996094 L 175.542969 247.996094 L 175.46875 249.132812 C 175.46875 249.132812 173.71875 250.65625 174.480469 251.566406 C 175.238281 252.480469 176.074219 252.023438 176.074219 252.023438 L 176.304688 255.75 Z M 169.621094 264.035156 L 167.566406 261.375 L 170.226562 248.070312 L 172.203125 247.765625 Z M 166.730469 250.046875 L 166.429688 247.84375 L 167.265625 247.917969 Z M 163.769531 257.269531 L 160.503906 255.367188 L 164.910156 247.84375 L 165.363281 252.785156 Z M 158.683594 237.425781 L 161.492188 234.84375 L 161.339844 232.410156 L 162.707031 233.625 L 162.707031 239.175781 L 158.53125 245.410156 Z M 158.757812 231.496094 L 160.503906 231.878906 L 158.757812 233.320312 Z M 180.707031 229.597656 L 181.089844 235.527344 L 179.722656 235.527344 Z M 189.519531 225.796875 L 189.519531 228 L 182.074219 228 Z M 155.71875 234.234375 L 129.894531 253.011719 C 129.894531 253.011719 122.300781 241.761719 118.578125 237.351562 C 114.855469 232.941406 108.402344 227.164062 108.402344 227.164062 C 108.402344 227.164062 119.945312 229.671875 128.910156 229.976562 C 137.871094 230.28125 156.023438 230.585938 156.023438 230.585938 Z M 154.730469 243.738281 L 142.808594 259.703125 L 143.113281 263.808594 L 146.226562 263.199219 L 147.820312 260.992188 L 148.960938 263.351562 L 144.632812 269.890625 L 131.566406 255.21875 L 155.492188 237.425781 Z M 147.667969 302.808594 L 123.597656 302.910156 C 124.457031 300.699219 125.175781 298.417969 125.746094 296.074219 C 135.984375 294.9375 143.984375 293.902344 148.363281 293.316406 L 148.960938 294.066406 Z M 90.722656 283.058594 C 90.714844 282.097656 90.632812 281.160156 90.480469 280.246094 L 93.238281 279.242188 L 109.554688 279.242188 C 109.632812 279.988281 109.6875 280.742188 109.722656 281.5 Z M 107.605469 295.628906 C 105.355469 295.84375 103.050781 296.050781 100.710938 296.257812 L 89.011719 290.789062 C 89.25 290.289062 89.46875 289.773438 89.660156 289.246094 L 99.261719 288.457031 L 109.285156 289.058594 C 108.921875 291.324219 108.359375 293.523438 107.605469 295.628906 Z M 106.253906 298.847656 L 104.859375 298.195312 C 105.453125 298.140625 106.046875 298.085938 106.640625 298.03125 C 106.515625 298.308594 106.382812 298.574219 106.253906 298.847656 Z M 98.984375 309.21875 C 98.472656 309.730469 97.941406 310.226562 97.402344 310.707031 L 87.578125 299.625 C 90.894531 299.382812 94.160156 299.125 97.359375 298.855469 L 104.472656 302.183594 C 102.929688 304.742188 101.089844 307.105469 98.984375 309.21875 Z M 85.929688 317.660156 L 79.582031 300.175781 C 80.667969 300.105469 81.753906 300.03125 82.835938 299.960938 L 94.460938 313.070312 C 91.847656 314.957031 88.988281 316.503906 85.929688 317.660156 Z M 72.957031 320.007812 C 72.585938 320.007812 72.214844 320.003906 71.84375 319.992188 L 72.976562 300.953125 C 73.929688 300.953125 74.859375 300.871094 75.769531 300.726562 L 82.335938 318.804688 C 79.34375 319.589844 76.203125 320.007812 72.957031 320.007812 Z M 64.507812 256.394531 C 64.242188 256.511719 64.015625 256.640625 63.820312 256.773438 L 60.777344 248.390625 C 64.433594 247.105469 68.355469 246.386719 72.453125 246.332031 L 71.621094 260.335938 C 70.121094 258.914062 66.34375 255.585938 64.507812 256.394531 Z M 68.085938 319.6875 C 64.921875 319.273438 61.890625 318.453125 59.039062 317.285156 L 67.117188 299.96875 C 67.800781 300.203125 68.503906 300.402344 69.226562 300.558594 Z M 47.230469 309.511719 L 61.542969 296.792969 C 62.222656 297.367188 62.945312 297.890625 63.707031 298.355469 L 55.628906 315.679688 C 52.542969 314.027344 49.722656 311.945312 47.230469 309.511719 Z M 39.597656 298.753906 L 57.644531 292.191406 C 58.03125 292.84375 58.460938 293.472656 58.925781 294.074219 L 44.667969 306.738281 C 42.652344 304.316406 40.945312 301.636719 39.597656 298.753906 Z M 36.183594 284.691406 L 55.386719 285.839844 C 55.539062 286.839844 55.773438 287.808594 56.082031 288.742188 L 38.175781 295.257812 C 37.023438 291.933594 36.335938 288.386719 36.183594 284.691406 Z M 38.140625 271.183594 L 55.605469 279.34375 C 55.410156 280.222656 55.28125 281.125 55.226562 282.050781 L 36.21875 280.917969 C 36.421875 277.523438 37.082031 274.257812 38.140625 271.183594 Z M 45.851562 258.246094 L 53.425781 266.789062 C 53.390625 266.839844 53.351562 266.894531 53.3125 266.945312 C 50.242188 271.269531 52.035156 273.101562 53.480469 273.75 C 54.070312 274.011719 55.472656 274.738281 56.921875 275.496094 C 56.882812 275.578125 56.847656 275.660156 56.8125 275.742188 L 39.550781 267.675781 C 41.160156 264.210938 43.289062 261.035156 45.851562 258.246094 Z M 57.285156 249.820312 L 62.011719 262.84375 C 61.699219 262.703125 61.371094 262.554688 61.007812 262.394531 C 58.515625 261.273438 57.261719 261.8125 55.710938 263.679688 L 48.542969 255.597656 C 51.160156 253.277344 54.097656 251.324219 57.285156 249.820312 Z M 75.453125 259.417969 L 75.84375 259.519531 L 75.652344 260.269531 L 75.40625 260.203125 Z M 75.582031 257.257812 L 76.375 257.464844 L 76.183594 258.214844 L 75.535156 258.042969 Z M 75.710938 255.097656 L 76.902344 255.40625 L 76.710938 256.15625 L 75.664062 255.882812 Z M 75.839844 252.910156 C 75.910156 252.945312 75.984375 252.976562 76.066406 252.996094 L 77.433594 253.351562 L 77.238281 254.101562 L 75.871094 253.746094 C 75.84375 253.738281 75.820312 253.734375 75.792969 253.730469 Z M 75.984375 250.507812 C 76.101562 250.703125 76.320312 250.867188 76.601562 250.941406 L 77.960938 251.296875 L 77.769531 252.042969 L 76.40625 251.691406 C 76.234375 251.644531 76.066406 251.640625 75.914062 251.671875 Z M 76.226562 246.476562 C 76.550781 246.503906 76.871094 246.539062 77.195312 246.574219 C 77.316406 246.691406 77.480469 246.78125 77.667969 246.832031 L 79.019531 247.183594 L 78.828125 247.933594 L 77.476562 247.582031 C 76.996094 247.457031 76.53125 247.648438 76.4375 248.007812 C 76.34375 248.367188 76.65625 248.761719 77.136719 248.886719 L 78.492188 249.242188 L 78.300781 249.988281 L 76.941406 249.632812 C 76.570312 249.539062 76.210938 249.632812 76.023438 249.84375 Z M 82.785156 256.941406 L 82.996094 256.996094 L 82.664062 257.707031 L 82.589844 257.6875 Z M 83.3125 254.882812 L 83.910156 255.039062 L 83.578125 255.75 L 83.121094 255.632812 Z M 83.839844 252.828125 L 84.824219 253.082031 L 84.492188 253.796875 L 83.648438 253.578125 Z M 84.371094 250.773438 L 85.734375 251.128906 L 85.402344 251.839844 L 84.179688 251.519531 Z M 84.902344 248.714844 L 86.363281 249.097656 C 86.46875 249.125 86.570312 249.136719 86.664062 249.132812 L 86.308594 249.894531 C 86.265625 249.875 86.21875 249.859375 86.171875 249.847656 L 84.707031 249.464844 Z M 93.15625 296.890625 C 90.6875 297.089844 88.1875 297.277344 85.660156 297.460938 L 84.765625 296.449219 C 85.023438 296.222656 85.277344 295.988281 85.519531 295.742188 C 86.058594 295.203125 86.558594 294.628906 87.023438 294.027344 Z M 98.984375 257.113281 C 99.226562 257.359375 99.464844 257.605469 99.699219 257.855469 L 87.96875 268.277344 L 85.457031 263.523438 L 84.226562 263.285156 L 90.148438 250.585938 C 93.410156 252.316406 96.382812 254.519531 98.984375 257.113281 Z M 100.445312 272.601562 L 90.5625 276.199219 L 89.3125 276.199219 C 88.898438 275.234375 88.402344 274.3125 87.832031 273.445312 L 88.679688 272.691406 C 89.875 272.703125 91.050781 272.710938 92.195312 272.710938 C 95.167969 272.710938 97.945312 272.667969 100.445312 272.601562 Z M 135.136719 276.425781 L 127.050781 278.046875 C 126.910156 276.550781 126.710938 275.066406 126.449219 273.609375 L 133.144531 274.003906 Z M 146.683594 291.207031 C 142.601562 291.75 136.035156 292.589844 127.78125 293.527344 C 127.289062 293.582031 126.773438 293.640625 126.269531 293.695312 C 126.882812 290.566406 127.230469 287.339844 127.28125 284.042969 L 139.691406 282.433594 Z M 109.097656 276.199219 L 101.597656 276.199219 L 108.527344 273.679688 C 108.746094 274.507812 108.9375 275.347656 109.097656 276.199219 Z M 137.492188 272.019531 L 127.238281 260.007812 L 129.210938 257.878906 L 139.316406 270.269531 L 139.464844 272.019531 Z M 122.742188 261.355469 L 131.617188 272.152344 L 126.101562 271.824219 C 125.332031 268.1875 124.199219 264.683594 122.742188 261.355469 Z M 107.375 270.082031 L 106 270.582031 C 105.835938 270.589844 105.671875 270.597656 105.507812 270.605469 L 105.402344 270.597656 L 105.398438 270.609375 C 101.878906 270.757812 97.324219 270.886719 92.195312 270.886719 C 91.707031 270.886719 91.210938 270.886719 90.710938 270.882812 L 102.148438 260.726562 C 104.320312 263.554688 106.089844 266.699219 107.375 270.082031 Z M 301.828125 228.78125 C 296.671875 228.78125 291.6875 229.5 286.964844 230.84375 C 284.617188 225.757812 281.066406 218.089844 280.8125 217.738281 C 280.433594 217.203125 279.75 217.433594 279.75 217.433594 L 277.46875 211.425781 L 281.722656 207.394531 L 281.710938 206.917969 C 283.042969 206.105469 284.011719 203.160156 283.988281 199.652344 C 283.957031 195.898438 282.796875 192.808594 281.316406 192.285156 C 281.28125 192.023438 280.828125 190.996094 275.800781 191.890625 C 272.609375 192.496094 269.648438 194.777344 269.648438 194.777344 L 268.835938 192.597656 C 270.121094 187.59375 271.089844 182.757812 271.097656 179.632812 C 271.097656 179.183594 271.078125 178.769531 271.039062 178.386719 C 270.726562 175.535156 269.046875 173.824219 267.171875 172.945312 C 265.386719 172.097656 263.425781 171.910156 262.042969 171.894531 C 260.171875 170.335938 256.246094 167.144531 255.445312 167.027344 C 254.382812 166.875 252.785156 166.269531 252.785156 166.269531 C 252.785156 166.269531 253.773438 164.0625 252.785156 163.988281 C 251.800781 163.910156 251.34375 163.988281 251.34375 163.988281 C 251.34375 163.988281 250.886719 162.921875 249.140625 162.695312 C 247.394531 162.46875 246.179688 162.847656 246.179688 162.847656 L 246.179688 162.011719 L 247.621094 162.011719 L 247.621094 159.804688 L 241.242188 159.804688 L 241.242188 162.921875 L 242.457031 163 L 242.457031 163.910156 L 239.644531 165.964844 C 239.644531 165.964844 237.214844 165.660156 235.242188 167.027344 C 233.265625 168.398438 233.875 170.90625 234.785156 172.5 C 235.695312 174.097656 236.835938 176.605469 237.824219 175.921875 C 238.8125 175.238281 242.609375 174.480469 242.609375 174.480469 C 242.609375 174.480469 246.027344 179.722656 246.789062 180.332031 C 247.546875 180.941406 248.53125 180.484375 248.53125 180.484375 L 249.140625 182.308594 C 249.140625 182.308594 244.8125 184.589844 246.253906 185.882812 C 247.695312 187.175781 248.304688 186.871094 248.304688 186.871094 L 247.851562 189.074219 L 250.28125 191.050781 L 251.570312 190.519531 L 252.9375 192.800781 L 251.875 193.714844 C 251.875 193.714844 247.316406 191.128906 243.214844 189.683594 C 239.113281 188.238281 234.328125 188.085938 234.328125 188.085938 L 233.976562 188.089844 L 233.976562 186.871094 L 234.277344 186.871094 C 234.949219 186.871094 235.496094 186.324219 235.496094 185.65625 C 235.496094 184.984375 234.949219 184.4375 234.277344 184.4375 L 216.757812 184.4375 C 216.089844 184.4375 215.546875 184.984375 215.546875 185.65625 C 215.546875 186.324219 216.089844 186.871094 216.757812 186.871094 L 217.0625 186.871094 L 217.0625 188.160156 L 216.328125 188.164062 C 216.328125 188.164062 213.898438 188.085938 208.429688 188.921875 C 202.960938 189.757812 185.949219 196.144531 175.238281 202.152344 C 164.53125 208.15625 162.175781 217.660156 162.097656 216.292969 C 162.023438 214.921875 159.136719 214.46875 159.136719 214.46875 C 159.136719 214.46875 140.453125 214.621094 113.871094 211.957031 C 87.285156 209.296875 85.996094 204.507812 79.464844 203.367188 C 72.929688 202.226562 72.171875 205.496094 72.171875 205.496094 L 72.324219 209.980469 C 72.324219 209.980469 70.347656 209.753906 70.121094 211.046875 C 70.070312 211.339844 70.042969 211.664062 70.0625 212.023438 C 61.664062 211.738281 54.238281 213.152344 48.027344 215.191406 L 47.039062 213.941406 C 48.1875 214.011719 49.085938 214.070312 49.085938 214.070312 C 49.085938 214.070312 52.398438 214.238281 51.546875 206.671875 C 51.546875 206.671875 49.53125 204.4375 45.601562 203.65625 C 41.671875 202.875 39.226562 204.210938 39.226562 204.210938 L 39.285156 204.53125 C 38.414062 204.828125 38.09375 206.734375 38.570312 208.886719 C 39.03125 210.957031 40.070312 212.515625 40.964844 212.535156 C 41.332031 213.042969 42.011719 213.675781 43.175781 213.722656 C 43.40625 213.734375 43.667969 213.746094 43.941406 213.761719 L 44.632812 216.40625 C 33.757812 220.644531 27.433594 226.402344 27.433594 226.402344 C 27.433594 226.402344 30.625 230.203125 34.878906 230.054688 C 39.132812 229.898438 46.121094 223.464844 56.753906 221.839844 C 62.15625 221.019531 73.832031 221.800781 81.207031 222.433594 C 81.683594 222.597656 81.96875 222.679688 81.96875 222.679688 C 81.96875 222.679688 81.96875 224.882812 82.730469 227.695312 C 82.964844 228.5625 83.972656 229.414062 85.25 230.179688 C 81.300781 229.265625 77.1875 228.78125 72.957031 228.78125 C 42.945312 228.785156 18.628906 253.125 18.621094 283.167969 C 18.628906 313.207031 42.945312 337.550781 72.957031 337.554688 C 89.414062 337.550781 104.15625 330.230469 114.117188 318.667969 L 115.691406 318.621094 C 115.691406 318.621094 202.351562 317.785156 218.457031 316.796875 C 234.558594 315.808594 241.242188 301.515625 241.242188 301.515625 C 241.242188 301.515625 244.636719 291.988281 247.492188 283.148438 C 247.492188 283.15625 247.492188 283.160156 247.492188 283.167969 C 247.496094 313.207031 271.8125 337.550781 301.828125 337.554688 C 331.839844 337.550781 356.15625 313.207031 356.164062 283.167969 C 356.15625 253.125 331.839844 228.785156 301.828125 228.78125"/></g><g fill="#FFF"><use x="33.44" y="178.292" xmlns:xlink="http://www.w3.org/1999/xlink" xlink:href="#b" xlink:type="simple" xlink:actuate="onLoad" xlink:show="embed"/></g><g fill="#FFF"><use x="50.594" y="155.61" xmlns:xlink="http://www.w3.org/1999/xlink" xlink:href="#c" xlink:type="simple" xlink:actuate="onLoad" xlink:show="embed"/></g><g fill="#FFF"><use x="72.131" y="135.098" xmlns:xlink="http://www.w3.org/1999/xlink" xlink:href="#d" xlink:type="simple" xlink:actuate="onLoad" xlink:show="embed"/></g><g fill="#FFF"><use x="95.525" y="118.827" xmlns:xlink="http://www.w3.org/1999/xlink" xlink:href="#e" xlink:type="simple" xlink:actuate="onLoad" xlink:show="embed"/></g><g fill="#FFF"><use x="124.747" y="105.376" xmlns:xlink="http://www.w3.org/1999/xlink" xlink:href="#f" xlink:type="simple" xlink:actuate="onLoad" xlink:show="embed"/></g><g fill="#FFF"><use x="169.105" y="95.226" xmlns:xlink="http://www.w3.org/1999/xlink" xlink:href="#g" xlink:type="simple" xlink:actuate="onLoad" xlink:show="embed"/></g><g fill="#FFF"><use x="196.817" y="94.533" xmlns:xlink="http://www.w3.org/1999/xlink" xlink:href="#h" xlink:type="simple" xlink:actuate="onLoad" xlink:show="embed"/></g><g fill="#FFF"><use x="225.347" y="98.348" xmlns:xlink="http://www.w3.org/1999/xlink" xlink:href="#i" xlink:type="simple" xlink:actuate="onLoad" xlink:show="embed"/></g><g fill="#FFF"><use x="268.285" y="113.151" xmlns:xlink="http://www.w3.org/1999/xlink" xlink:href="#j" xlink:type="simple" xlink:actuate="onLoad" xlink:show="embed"/></g><g fill="#FFF"><use x="294.035" y="129.048" xmlns:xlink="http://www.w3.org/1999/xlink" xlink:href="#k" xlink:type="simple" xlink:actuate="onLoad" xlink:show="embed"/></g><g fill="#FFF"><use x="307.263" y="139.105" xmlns:xlink="http://www.w3.org/1999/xlink" xlink:href="#l" xlink:type="simple" xlink:actuate="onLoad" xlink:show="embed"/></g><g fill="#FFF"><use x="327.6" y="159.936" xmlns:xlink="http://www.w3.org/1999/xlink" xlink:href="#m" xlink:type="simple" xlink:actuate="onLoad" xlink:show="embed"/></g></svg>