<svg xmlns="http://www.w3.org/2000/svg" width="375" viewBox="0 0 375 375" height="375" version="1.0"><defs><clipPath id="a"><path d="M 18.265625 98.652344 L 356.515625 98.652344 L 356.515625 276.402344 L 18.265625 276.402344 Z M 18.265625 98.652344"/></clipPath></defs><path fill="#FFF" d="M-37.5 -37.5H412.5V412.5H-37.5z"/><path fill="#FFF" d="M-37.5 -37.5H412.5V412.5H-37.5z"/><path d="M-37.5 -37.5H412.5V412.5H-37.5z"/><g clip-path="url(#a)"><path fill="#FFF" d="M 338.570312 224.160156 L 324.113281 223.296875 C 324.136719 222.871094 324.152344 222.445312 324.152344 222.015625 C 324.152344 220.449219 323.992188 218.921875 323.6875 217.449219 L 337.386719 212.464844 C 338.199219 215.507812 338.632812 218.703125 338.632812 222.015625 C 338.632812 222.734375 338.609375 223.449219 338.570312 224.160156 Z M 335.109375 237.769531 L 321.984375 231.636719 C 322.675781 230.1875 323.210938 228.648438 323.578125 227.042969 L 338.164062 227.914062 C 337.605469 231.390625 336.566406 234.695312 335.109375 237.769531 Z M 327.855469 248.066406 C 327.3125 248.609375 326.75 249.132812 326.175781 249.640625 L 316.5625 238.792969 C 316.921875 238.480469 317.273438 238.15625 317.613281 237.816406 C 318.507812 236.917969 319.324219 235.941406 320.058594 234.902344 L 333.320312 241.097656 C 331.78125 243.632812 329.945312 245.96875 327.855469 248.066406 Z M 314.644531 256.5625 L 309.695312 242.933594 C 311.035156 242.425781 312.316406 241.796875 313.523438 241.050781 L 323.222656 251.992188 C 320.597656 253.878906 317.71875 255.421875 314.644531 256.5625 Z M 301.828125 258.855469 C 301.394531 258.855469 300.964844 258.847656 300.539062 258.832031 L 301.402344 244.351562 C 301.542969 244.355469 301.683594 244.363281 301.828125 244.363281 C 303.277344 244.363281 304.6875 244.21875 306.054688 243.957031 L 311.042969 257.695312 C 308.101562 258.453125 305.015625 258.855469 301.828125 258.855469 Z M 298.214844 199.960938 L 292.730469 186.304688 C 295.425781 185.621094 298.242188 185.238281 301.152344 185.183594 L 300.285156 199.726562 C 299.585938 199.777344 298.894531 199.851562 298.214844 199.960938 Z M 296.78125 258.511719 C 293.625 258.082031 290.605469 257.25 287.761719 256.074219 L 293.902344 242.910156 C 295.105469 243.367188 296.355469 243.722656 297.648438 243.964844 Z M 276.015625 248.277344 L 286.886719 238.617188 C 288 239.621094 289.210938 240.511719 290.503906 241.273438 L 284.359375 254.453125 C 281.292969 252.792969 278.488281 250.710938 276.015625 248.277344 Z M 268.441406 237.550781 L 282.140625 232.5625 C 282.765625 233.730469 283.496094 234.832031 284.3125 235.859375 L 273.464844 245.496094 C 271.46875 243.082031 269.777344 240.414062 268.441406 237.550781 Z M 265.054688 223.550781 L 279.632812 224.421875 C 279.804688 226.039062 280.152344 227.601562 280.648438 229.09375 L 267.027344 234.046875 C 265.886719 230.742188 265.203125 227.21875 265.054688 223.550781 Z M 250.769531 203.375 C 250.667969 202.695312 250.53125 202.082031 250.371094 201.546875 C 251.609375 195.539062 252.605469 189.078125 252.8125 183.210938 C 253.164062 173.253906 255.902344 165.054688 258.4375 159.292969 L 268.054688 158.027344 L 269.117188 161.980469 L 274.753906 174.851562 C 263.753906 181.191406 255.179688 191.277344 250.769531 203.375 Z M 249.367188 199.308594 C 247.925781 197.105469 245.191406 193.378906 245.191406 193.378906 L 248.683594 176.578125 C 248.683594 176.578125 249.898438 176.503906 250.507812 175.589844 C 251.113281 174.675781 251.800781 172.246094 253.015625 169.050781 C 253.503906 167.765625 254.351562 165.945312 255.191406 164.230469 C 253.386719 169.4375 251.847656 175.84375 251.597656 183.171875 C 251.417969 188.386719 250.589844 194.113281 249.527344 199.570312 C 249.472656 199.484375 249.421875 199.390625 249.367188 199.308594 Z M 241.394531 219.074219 C 238.660156 227.972656 234.328125 236.636719 234.328125 236.636719 L 233.722656 235.421875 C 233.722656 235.421875 237.066406 229.644531 238.582031 223.5625 C 240.101562 217.480469 243.292969 202.730469 243.292969 202.730469 C 244.585938 205.390625 244.128906 210.183594 241.394531 219.074219 Z M 229.46875 206 C 228.480469 204.785156 225.898438 203.871094 225.898438 203.871094 L 226.964844 200.296875 C 226.964844 200.296875 232.28125 201.667969 233.039062 200.144531 C 233.796875 198.625 233.191406 197.179688 233.191406 197.179688 L 228.175781 195.738281 L 228.40625 195.054688 L 234.710938 195.203125 L 236 193.152344 L 236.761719 193.761719 L 232.355469 209.042969 C 232.355469 209.042969 230.457031 207.214844 229.46875 206 Z M 226.734375 167.074219 C 226.734375 167.074219 228.558594 169.734375 228.101562 171.027344 C 227.644531 172.320312 225.140625 172.472656 225.140625 172.472656 Z M 240.253906 172.851562 C 240.710938 169.433594 237.671875 166.621094 237.671875 166.621094 L 242.152344 163.503906 L 242.078125 172.777344 L 238.355469 184.863281 L 234.253906 182.507812 C 234.253906 182.507812 239.800781 176.273438 240.253906 172.851562 Z M 241.546875 160.613281 C 241.546875 160.613281 241.773438 160.917969 241.621094 161.601562 C 241.46875 162.285156 235.773438 165.097656 235.773438 165.097656 L 235.242188 162.363281 Z M 266.648438 112.890625 C 268.253906 113.675781 269.539062 114.941406 269.828125 117.371094 C 269.867188 117.695312 269.886719 118.070312 269.886719 118.476562 C 269.894531 121.074219 269.140625 125.101562 268.082031 129.433594 L 266.152344 124.273438 C 266.152344 124.273438 268.355469 123.816406 268.660156 122.066406 C 268.964844 120.320312 267.824219 119.027344 267.824219 119.027344 L 263.332031 112.03125 C 264.394531 112.140625 265.589844 112.386719 266.648438 112.890625 Z M 280.242188 216.296875 C 279.871094 217.691406 279.636719 219.144531 279.546875 220.636719 L 265.089844 219.773438 C 265.289062 216.402344 265.941406 213.160156 266.984375 210.101562 Z M 284.335938 208.136719 C 283.222656 209.539062 282.273438 211.082031 281.519531 212.726562 L 268.390625 206.59375 C 269.980469 203.140625 272.09375 199.976562 274.632812 197.1875 Z M 282.128906 190.898438 L 287.683594 204.726562 C 287.429688 204.9375 287.179688 205.152344 286.929688 205.375 L 277.316406 194.53125 C 278.820312 193.195312 280.429688 191.976562 282.128906 190.898438 Z M 304.917969 185.300781 C 308.621094 185.609375 312.15625 186.460938 315.457031 187.777344 L 311.277344 196.738281 C 308.394531 196.199219 305.207031 195.976562 304.242188 196.660156 Z M 327.855469 195.960938 C 328.070312 196.175781 328.28125 196.398438 328.492188 196.617188 L 317.648438 206.25 C 317.636719 206.238281 317.625 206.226562 317.613281 206.214844 C 317.578125 206.175781 317.539062 206.144531 317.507812 206.109375 C 317.671875 204.886719 317.816406 203.757812 317.878906 203.058594 C 318.078125 200.828125 318.03125 199.511719 316.207031 198.246094 C 315.945312 198.066406 315.523438 197.875 314.996094 197.6875 L 318.878906 189.355469 C 322.195312 191.097656 325.214844 193.328125 327.855469 195.960938 Z M 336.226562 208.875 L 322.601562 213.828125 C 321.945312 212.160156 321.09375 210.589844 320.070312 209.140625 L 330.945312 199.480469 C 333.140625 202.316406 334.929688 205.472656 336.226562 208.875 Z M 211.394531 170.648438 L 201.367188 168.746094 L 203.039062 165.476562 L 211.46875 166.46875 Z M 200.152344 197.484375 L 192.859375 198.09375 C 192.859375 198.09375 194.074219 196.371094 194.277344 193.835938 C 194.480469 191.300781 192.65625 189.171875 192.65625 189.171875 L 194.378906 189.070312 L 194.582031 184.511719 L 196.503906 186.132812 L 196.503906 187.550781 C 196.503906 187.550781 199.542969 191.910156 200.757812 193.632812 C 201.972656 195.355469 200.152344 197.484375 200.152344 197.484375 Z M 191.1875 166.085938 C 190.507812 166.085938 190.808594 165.023438 190.808594 165.023438 L 192.859375 164.871094 C 192.859375 164.871094 191.871094 166.085938 191.1875 166.085938 Z M 189.722656 197.179688 C 188.101562 197.179688 185.769531 196.371094 184.152344 194.953125 C 182.53125 193.53125 181.214844 188.464844 181.214844 188.464844 L 182.53125 188.363281 C 182.53125 188.363281 185.367188 192.824219 187.085938 192.925781 C 188.808594 193.023438 190.226562 189.882812 190.226562 189.882812 C 190.226562 189.882812 192.152344 191.707031 192.253906 193.632812 C 192.351562 195.558594 191.339844 197.179688 189.722656 197.179688 Z M 179.339844 177.71875 C 179.339844 177.71875 179.644531 176.425781 180.480469 176.425781 C 181.316406 176.425781 181.542969 177.492188 181.542969 177.492188 L 181.390625 184.027344 L 179.339844 185.550781 Z M 177.59375 170.800781 L 173.71875 171.105469 L 173.71875 170.269531 L 178.125 167.757812 Z M 172.429688 194.824219 L 173.265625 186.839844 L 175.542969 186.839844 L 175.46875 187.980469 C 175.46875 187.980469 173.71875 189.503906 174.480469 190.414062 C 175.238281 191.328125 176.074219 190.871094 176.074219 190.871094 L 176.304688 194.597656 Z M 169.621094 202.882812 L 167.566406 200.222656 L 170.226562 186.917969 L 172.203125 186.613281 Z M 166.730469 188.894531 L 166.429688 186.691406 L 167.265625 186.765625 Z M 163.769531 196.117188 L 160.503906 194.214844 L 164.910156 186.691406 L 165.363281 191.632812 Z M 158.683594 176.273438 L 161.492188 173.691406 L 161.339844 171.257812 L 162.707031 172.472656 L 162.707031 178.023438 L 158.53125 184.257812 Z M 158.757812 170.34375 L 160.503906 170.722656 L 158.757812 172.167969 Z M 180.707031 168.445312 L 181.089844 174.375 L 179.722656 174.375 Z M 189.519531 164.644531 L 189.519531 166.847656 L 182.074219 166.847656 Z M 155.71875 173.082031 L 129.894531 191.859375 C 129.894531 191.859375 122.300781 180.609375 118.578125 176.199219 C 114.855469 171.789062 108.402344 166.011719 108.402344 166.011719 C 108.402344 166.011719 119.945312 168.519531 128.910156 168.824219 C 137.871094 169.128906 156.023438 169.433594 156.023438 169.433594 Z M 154.730469 182.582031 L 142.808594 198.550781 L 143.113281 202.65625 L 146.226562 202.046875 L 147.820312 199.839844 L 148.960938 202.199219 L 144.632812 208.738281 L 131.566406 194.066406 L 155.492188 176.273438 Z M 147.667969 241.65625 L 123.597656 241.757812 C 124.457031 239.546875 125.175781 237.265625 125.746094 234.921875 C 135.984375 233.785156 143.984375 232.75 148.363281 232.164062 L 148.960938 232.914062 Z M 90.722656 221.90625 C 90.714844 220.945312 90.632812 220.007812 90.480469 219.089844 L 93.238281 218.089844 L 109.554688 218.089844 C 109.632812 218.835938 109.6875 219.589844 109.722656 220.347656 Z M 107.605469 234.476562 C 105.355469 234.691406 103.050781 234.898438 100.710938 235.105469 L 89.011719 229.636719 C 89.25 229.136719 89.46875 228.621094 89.660156 228.09375 L 99.261719 227.304688 L 109.285156 227.90625 C 108.921875 230.171875 108.359375 232.371094 107.605469 234.476562 Z M 106.253906 237.695312 L 104.859375 237.042969 C 105.453125 236.988281 106.046875 236.933594 106.640625 236.878906 C 106.515625 237.15625 106.382812 237.421875 106.253906 237.695312 Z M 98.984375 248.066406 C 98.472656 248.578125 97.941406 249.074219 97.402344 249.554688 L 87.578125 238.472656 C 90.894531 238.230469 94.160156 237.972656 97.359375 237.703125 L 104.472656 241.027344 C 102.929688 243.589844 101.089844 245.953125 98.984375 248.066406 Z M 85.929688 256.507812 L 79.582031 239.023438 C 80.667969 238.953125 81.753906 238.878906 82.835938 238.808594 L 94.460938 251.917969 C 91.847656 253.804688 88.988281 255.351562 85.929688 256.507812 Z M 72.957031 258.855469 C 72.585938 258.855469 72.214844 258.851562 71.84375 258.839844 L 72.976562 239.800781 C 73.929688 239.800781 74.859375 239.71875 75.769531 239.574219 L 82.335938 257.652344 C 79.34375 258.4375 76.203125 258.855469 72.957031 258.855469 Z M 64.507812 195.242188 C 64.242188 195.359375 64.015625 195.488281 63.820312 195.621094 L 60.777344 187.234375 C 64.433594 185.953125 68.355469 185.234375 72.453125 185.179688 L 71.621094 199.179688 C 70.121094 197.761719 66.34375 194.433594 64.507812 195.242188 Z M 68.085938 258.535156 C 64.921875 258.117188 61.890625 257.300781 59.039062 256.132812 L 67.117188 238.816406 C 67.800781 239.050781 68.503906 239.25 69.226562 239.40625 Z M 47.230469 248.359375 L 61.542969 235.640625 C 62.222656 236.214844 62.945312 236.738281 63.707031 237.203125 L 55.628906 254.527344 C 52.542969 252.875 49.722656 250.792969 47.230469 248.359375 Z M 39.597656 237.601562 L 57.644531 231.035156 C 58.03125 231.691406 58.460938 232.320312 58.925781 232.921875 L 44.667969 245.585938 C 42.652344 243.160156 40.945312 240.484375 39.597656 237.601562 Z M 36.183594 223.539062 L 55.386719 224.6875 C 55.539062 225.6875 55.773438 226.65625 56.082031 227.589844 L 38.175781 234.105469 C 37.023438 230.78125 36.335938 227.234375 36.183594 223.539062 Z M 38.140625 210.03125 L 55.605469 218.191406 C 55.410156 219.070312 55.28125 219.972656 55.226562 220.898438 L 36.21875 219.761719 C 36.421875 216.367188 37.082031 213.105469 38.140625 210.03125 Z M 45.851562 197.09375 L 53.425781 205.636719 C 53.390625 205.6875 53.351562 205.742188 53.3125 205.792969 C 50.242188 210.117188 52.035156 211.949219 53.480469 212.597656 C 54.070312 212.859375 55.472656 213.585938 56.921875 214.34375 C 56.882812 214.425781 56.847656 214.507812 56.8125 214.589844 L 39.550781 206.523438 C 41.160156 203.058594 43.289062 199.882812 45.851562 197.09375 Z M 57.285156 188.667969 L 62.011719 201.691406 C 61.699219 201.550781 61.371094 201.402344 61.007812 201.242188 C 58.515625 200.121094 57.261719 200.660156 55.710938 202.527344 L 48.542969 194.445312 C 51.160156 192.125 54.097656 190.171875 57.285156 188.667969 Z M 75.453125 198.265625 L 75.84375 198.367188 L 75.652344 199.117188 L 75.40625 199.050781 Z M 75.582031 196.105469 L 76.375 196.3125 L 76.183594 197.0625 L 75.535156 196.890625 Z M 75.710938 193.941406 L 76.902344 194.253906 L 76.710938 195.003906 L 75.664062 194.730469 Z M 75.839844 191.757812 C 75.910156 191.789062 75.984375 191.824219 76.066406 191.84375 L 77.433594 192.199219 L 77.238281 192.949219 L 75.871094 192.59375 C 75.84375 192.585938 75.820312 192.582031 75.792969 192.578125 Z M 75.984375 189.355469 C 76.101562 189.550781 76.320312 189.714844 76.601562 189.789062 L 77.960938 190.144531 L 77.769531 190.890625 L 76.40625 190.539062 C 76.234375 190.492188 76.066406 190.488281 75.914062 190.519531 Z M 76.226562 185.324219 C 76.550781 185.351562 76.871094 185.386719 77.195312 185.421875 C 77.316406 185.539062 77.480469 185.628906 77.667969 185.679688 L 79.019531 186.03125 L 78.828125 186.78125 L 77.476562 186.429688 C 76.996094 186.304688 76.53125 186.496094 76.4375 186.855469 C 76.34375 187.214844 76.65625 187.609375 77.136719 187.734375 L 78.492188 188.089844 L 78.300781 188.835938 L 76.941406 188.480469 C 76.570312 188.386719 76.210938 188.480469 76.023438 188.691406 Z M 82.785156 195.785156 L 82.996094 195.84375 L 82.664062 196.554688 L 82.589844 196.535156 Z M 83.3125 193.730469 L 83.910156 193.886719 L 83.578125 194.597656 L 83.121094 194.480469 Z M 83.839844 191.675781 L 84.824219 191.929688 L 84.492188 192.644531 L 83.648438 192.425781 Z M 84.371094 189.621094 L 85.734375 189.976562 L 85.402344 190.6875 L 84.179688 190.367188 Z M 84.902344 187.5625 L 86.363281 187.945312 C 86.46875 187.972656 86.570312 187.984375 86.664062 187.980469 L 86.308594 188.742188 C 86.265625 188.722656 86.21875 188.707031 86.171875 188.691406 L 84.707031 188.3125 Z M 93.15625 235.738281 C 90.6875 235.9375 88.1875 236.125 85.660156 236.308594 L 84.765625 235.296875 C 85.023438 235.070312 85.277344 234.835938 85.519531 234.589844 C 86.058594 234.050781 86.558594 233.476562 87.023438 232.871094 Z M 98.984375 195.960938 C 99.226562 196.207031 99.464844 196.453125 99.699219 196.703125 L 87.96875 207.125 L 85.457031 202.371094 L 84.226562 202.132812 L 90.148438 189.433594 C 93.410156 191.164062 96.382812 193.367188 98.984375 195.960938 Z M 100.445312 211.449219 L 90.5625 215.046875 L 89.3125 215.046875 C 88.898438 214.082031 88.402344 213.160156 87.832031 212.289062 L 88.679688 211.539062 C 89.875 211.550781 91.050781 211.558594 92.195312 211.558594 C 95.167969 211.558594 97.945312 211.515625 100.445312 211.449219 Z M 135.136719 215.273438 L 127.050781 216.894531 C 126.910156 215.394531 126.710938 213.914062 126.449219 212.457031 L 133.144531 212.851562 Z M 146.683594 230.054688 C 142.601562 230.597656 136.035156 231.4375 127.78125 232.375 C 127.289062 232.429688 126.773438 232.488281 126.269531 232.542969 C 126.882812 229.414062 127.230469 226.1875 127.28125 222.890625 L 139.691406 221.28125 Z M 109.097656 215.046875 L 101.597656 215.046875 L 108.527344 212.527344 C 108.746094 213.355469 108.9375 214.195312 109.097656 215.046875 Z M 137.492188 210.867188 L 127.238281 198.855469 L 129.210938 196.726562 L 139.316406 209.117188 L 139.464844 210.867188 Z M 122.742188 200.203125 L 131.617188 211 L 126.101562 210.671875 C 125.332031 207.035156 124.199219 203.53125 122.742188 200.203125 Z M 107.375 208.929688 L 106 209.429688 C 105.835938 209.4375 105.671875 209.445312 105.507812 209.453125 L 105.402344 209.445312 L 105.398438 209.457031 C 101.878906 209.605469 97.324219 209.734375 92.195312 209.734375 C 91.707031 209.734375 91.210938 209.734375 90.710938 209.730469 L 102.148438 199.574219 C 104.320312 202.402344 106.089844 205.546875 107.375 208.929688 Z M 301.828125 167.628906 C 296.671875 167.628906 291.6875 168.347656 286.964844 169.691406 C 284.617188 164.605469 281.066406 156.9375 280.8125 156.585938 C 280.433594 156.050781 279.75 156.28125 279.75 156.28125 L 277.46875 150.273438 L 281.722656 146.242188 L 281.710938 145.765625 C 283.042969 144.953125 284.011719 142.007812 283.988281 138.5 C 283.957031 134.746094 282.796875 131.65625 281.316406 131.132812 C 281.28125 130.871094 280.828125 129.84375 275.800781 130.738281 C 272.609375 131.34375 269.648438 133.625 269.648438 133.625 L 268.835938 131.445312 C 270.121094 126.441406 271.089844 121.605469 271.097656 118.476562 C 271.097656 118.03125 271.078125 117.617188 271.039062 117.234375 C 270.726562 114.382812 269.046875 112.671875 267.171875 111.792969 C 265.386719 110.945312 263.425781 110.757812 262.042969 110.742188 C 260.171875 109.183594 256.246094 105.992188 255.445312 105.875 C 254.382812 105.722656 252.785156 105.117188 252.785156 105.117188 C 252.785156 105.117188 253.773438 102.910156 252.785156 102.835938 C 251.800781 102.757812 251.34375 102.835938 251.34375 102.835938 C 251.34375 102.835938 250.886719 101.769531 249.140625 101.542969 C 247.394531 101.316406 246.179688 101.695312 246.179688 101.695312 L 246.179688 100.859375 L 247.621094 100.859375 L 247.621094 98.652344 L 241.242188 98.652344 L 241.242188 101.769531 L 242.457031 101.847656 L 242.457031 102.757812 L 239.644531 104.8125 C 239.644531 104.8125 237.214844 104.507812 235.242188 105.875 C 233.265625 107.246094 233.875 109.75 234.785156 111.347656 C 235.695312 112.945312 236.835938 115.453125 237.824219 114.769531 C 238.8125 114.085938 242.609375 113.324219 242.609375 113.324219 C 242.609375 113.324219 246.027344 118.570312 246.789062 119.179688 C 247.546875 119.789062 248.53125 119.332031 248.53125 119.332031 L 249.140625 121.15625 C 249.140625 121.15625 244.8125 123.4375 246.253906 124.730469 C 247.695312 126.023438 248.304688 125.71875 248.304688 125.71875 L 247.851562 127.921875 L 250.28125 129.898438 L 251.570312 129.367188 L 252.9375 131.648438 L 251.875 132.558594 C 251.875 132.558594 247.316406 129.976562 243.214844 128.53125 C 239.113281 127.085938 234.328125 126.933594 234.328125 126.933594 L 233.976562 126.933594 L 233.976562 125.71875 L 234.277344 125.71875 C 234.949219 125.71875 235.496094 125.171875 235.496094 124.5 C 235.496094 123.828125 234.949219 123.285156 234.277344 123.285156 L 216.757812 123.285156 C 216.089844 123.285156 215.546875 123.828125 215.546875 124.5 C 215.546875 125.171875 216.089844 125.71875 216.757812 125.71875 L 217.0625 125.71875 L 217.0625 127.007812 L 216.328125 127.011719 C 216.328125 127.011719 213.898438 126.933594 208.429688 127.769531 C 202.960938 128.605469 185.949219 134.992188 175.238281 141 C 164.53125 147.003906 162.175781 156.507812 162.097656 155.140625 C 162.023438 153.769531 159.136719 153.316406 159.136719 153.316406 C 159.136719 153.316406 140.453125 153.46875 113.871094 150.804688 C 87.285156 148.144531 85.996094 143.355469 79.464844 142.214844 C 72.929688 141.074219 72.171875 144.34375 72.171875 144.34375 L 72.324219 148.828125 C 72.324219 148.828125 70.347656 148.601562 70.121094 149.894531 C 70.070312 150.1875 70.042969 150.511719 70.0625 150.871094 C 61.664062 150.585938 54.238281 152 48.027344 154.039062 L 47.039062 152.789062 C 48.1875 152.859375 49.085938 152.917969 49.085938 152.917969 C 49.085938 152.917969 52.398438 153.085938 51.546875 145.519531 C 51.546875 145.519531 49.53125 143.285156 45.601562 142.503906 C 41.671875 141.722656 39.226562 143.058594 39.226562 143.058594 L 39.285156 143.378906 C 38.414062 143.675781 38.09375 145.582031 38.570312 147.734375 C 39.03125 149.804688 40.070312 151.363281 40.964844 151.382812 C 41.332031 151.890625 42.011719 152.523438 43.175781 152.570312 C 43.40625 152.582031 43.667969 152.59375 43.941406 152.609375 L 44.632812 155.253906 C 33.757812 159.492188 27.433594 165.25 27.433594 165.25 C 27.433594 165.25 30.625 169.050781 34.878906 168.902344 C 39.132812 168.746094 46.121094 162.3125 56.753906 160.6875 C 62.15625 159.867188 73.832031 160.648438 81.207031 161.28125 C 81.683594 161.445312 81.96875 161.527344 81.96875 161.527344 C 81.96875 161.527344 81.96875 163.730469 82.730469 166.542969 C 82.964844 167.410156 83.972656 168.261719 85.25 169.027344 C 81.300781 168.113281 77.1875 167.628906 72.957031 167.628906 C 42.945312 167.632812 18.628906 191.972656 18.621094 222.015625 C 18.628906 252.054688 42.945312 276.398438 72.957031 276.402344 C 89.414062 276.398438 104.15625 269.078125 114.117188 257.515625 L 115.691406 257.46875 C 115.691406 257.46875 202.351562 256.632812 218.457031 255.644531 C 234.558594 254.65625 241.242188 240.363281 241.242188 240.363281 C 241.242188 240.363281 244.636719 230.835938 247.492188 221.992188 C 247.492188 222 247.492188 222.007812 247.492188 222.015625 C 247.496094 252.054688 271.8125 276.398438 301.828125 276.402344 C 331.839844 276.398438 356.15625 252.054688 356.164062 222.015625 C 356.15625 191.972656 331.839844 167.632812 301.828125 167.628906"/></g></svg>